<svg id="svg" version="1.1" xmlns="http://www.w3.org/2000/svg" xmlns:xlink="http://www.w3.org/1999/xlink" width="400" height="400" viewBox="0, 0, 400,400">
  <g id="svgg">
    <path id="path0" d="M233.008 75.559 C 231.560 76.212,224.174 83.720,223.297 85.430 C 220.352 91.173,227.362 97.956,233.645 95.442 L 235.274 94.790 236.582 96.217 L 237.891 97.645 237.891 107.845 L 237.891 118.045 221.080 101.503 C 200.273 81.028,200.950 81.415,195.313 86.788 C 182.695 98.812,152.990 127.904,134.557 146.288 C 132.187 148.652,127.680 153.091,124.542 156.152 L 118.836 161.719 108.814 161.719 L 98.792 161.719 98.908 164.355 L 99.023 166.992 110.352 167.286 C 116.582 167.448,125.723 167.673,130.664 167.788 L 139.648 167.995 139.516 203.309 L 139.383 238.622 141.818 240.414 C 143.157 241.400,144.294 242.158,144.345 242.099 C 144.624 241.777,144.861 193.083,144.651 179.199 L 144.404 162.891 134.507 162.891 C 124.296 162.891,123.799 162.804,125.659 161.341 C 126.587 160.610,157.713 129.986,188.889 99.129 C 194.917 93.163,200.020 88.281,200.229 88.281 C 200.437 88.281,201.162 88.677,201.838 89.160 C 203.773 90.543,276.124 162.261,275.919 162.594 C 275.818 162.757,271.351 162.891,265.993 162.891 L 256.250 162.891 256.250 202.763 L 256.250 242.636 258.691 240.933 L 261.133 239.230 261.233 203.613 L 261.332 167.997 270.412 167.790 C 275.406 167.676,284.532 167.487,290.691 167.369 L 301.890 167.154 302.019 164.435 L 302.148 161.717 292.006 161.718 L 281.864 161.719 275.209 155.165 C 271.549 151.561,262.710 142.863,255.566 135.836 L 242.578 123.060 242.578 110.124 C 242.578 95.503,242.597 95.610,239.596 93.044 L 237.886 91.583 240.330 89.166 L 242.773 86.749 247.070 89.888 C 249.434 91.614,252.993 94.420,254.979 96.123 C 259.170 99.715,259.040 99.655,258.524 97.754 C 257.319 93.313,252.469 87.002,247.041 82.813 C 245.788 81.846,243.612 79.978,242.206 78.662 C 238.313 75.019,235.963 74.226,233.008 75.559 M238.494 79.865 C 240.168 81.538,239.804 82.496,236.140 86.070 C 234.318 87.848,232.750 89.117,232.655 88.889 C 232.561 88.662,232.470 88.960,232.453 89.551 C 232.390 91.743,230.047 92.865,228.215 91.582 C 226.033 90.054,226.214 88.008,228.655 86.577 C 230.097 85.732,232.866 82.764,234.882 79.903 C 235.782 78.625,237.239 78.610,238.494 79.865 M160.528 79.829 C 155.011 81.317,151.532 86.539,152.088 92.497 C 152.403 95.875,151.923 96.825,147.994 100.599 C 146.197 102.325,138.750 109.547,131.445 116.647 C 124.141 123.748,116.445 131.203,114.344 133.215 C 110.264 137.120,109.630 138.225,110.756 139.469 C 112.253 141.123,113.570 140.550,117.383 136.586 C 119.316 134.576,126.260 127.767,132.813 121.455 C 139.365 115.144,146.264 108.481,148.143 106.650 C 153.483 101.446,155.673 100.554,160.156 101.758 C 168.402 103.971,174.795 99.398,175.308 90.918 C 175.531 87.234,175.647 87.240,171.737 90.734 C 169.987 92.298,168.237 93.822,167.849 94.120 C 167.142 94.665,160.938 89.248,160.938 88.086 C 160.938 87.862,162.695 86.121,164.844 84.218 C 166.992 82.316,168.750 80.620,168.750 80.451 C 168.750 79.499,163.284 79.085,160.528 79.829 M247.559 97.484 C 245.476 98.623,246.007 100.071,249.902 103.882 C 268.850 122.421,286.942 139.716,287.689 140.006 C 289.037 140.529,290.625 139.398,290.625 137.916 C 290.625 136.986,289.814 136.002,286.043 132.358 C 283.523 129.922,277.589 124.150,272.856 119.531 C 249.313 96.554,249.292 96.535,247.559 97.484 M178.794 135.692 L 157.392 156.836 157.407 190.332 C 157.415 208.755,157.552 223.828,157.712 223.828 C 157.872 223.828,162.343 219.489,167.650 214.186 L 177.297 204.545 175.435 202.370 C 153.034 176.211,174.880 136.139,207.741 143.112 C 233.446 148.567,243.879 182.012,226.041 201.776 L 223.659 204.415 232.826 213.348 C 237.867 218.262,242.300 222.460,242.676 222.678 C 243.325 223.054,243.359 221.387,243.359 189.943 L 243.359 156.811 222.400 136.120 C 210.873 124.740,201.161 115.231,200.818 114.988 C 200.294 114.617,196.799 117.903,178.794 135.692 M193.891 155.987 C 185.332 162.308,182.907 169.465,186.709 177.188 C 192.767 189.494,211.605 187.976,215.678 174.854 C 217.860 167.826,214.887 161.077,207.343 155.929 C 202.757 152.799,201.953 153.698,201.953 161.959 C 201.953 168.268,201.925 168.359,199.968 168.359 C 199.260 168.359,199.219 168.008,199.219 161.975 C 199.219 153.499,198.442 152.626,193.891 155.987 M312.208 159.180 C 312.212 160.039,312.292 160.345,312.386 159.859 C 312.479 159.373,312.476 158.670,312.378 158.296 C 312.280 157.923,312.204 158.320,312.208 159.180 M195.313 165.177 C 195.313 172.489,200.171 175.688,204.581 171.279 L 205.859 170.000 205.859 165.469 C 205.859 160.326,205.920 160.257,208.399 162.542 C 215.945 169.498,211.190 181.047,200.781 181.045 C 190.447 181.042,185.618 169.831,192.840 162.608 C 195.211 160.237,195.313 160.342,195.313 165.177 M193.818 206.641 C 193.560 215.342,193.076 228.745,192.741 236.426 C 192.077 251.675,192.094 251.910,194.246 256.250 L 195.117 258.008 200.684 258.116 L 206.250 258.225 207.231 256.007 C 209.418 251.061,209.417 251.072,208.994 241.672 C 208.276 225.731,207.853 213.958,207.585 202.483 L 207.319 191.098 205.320 191.777 L 203.320 192.456 203.211 197.409 C 203.151 200.133,203.256 207.938,203.446 214.754 C 203.862 229.749,203.725 230.480,200.514 230.463 C 197.582 230.447,197.548 230.212,198.023 213.424 C 198.251 205.361,198.435 197.415,198.433 195.768 L 198.428 192.773 196.357 191.797 L 194.287 190.820 193.818 206.641 M171.067 222.949 L 157.617 236.133 157.510 242.230 C 157.430 246.802,157.528 248.428,157.901 248.735 C 158.446 249.182,166.276 252.344,166.838 252.344 C 167.030 252.344,167.188 249.464,167.188 245.945 L 167.188 239.547 176.707 230.223 L 186.227 220.898 186.504 215.887 C 186.792 210.698,186.568 209.827,184.934 209.778 C 184.704 209.771,178.464 215.698,171.067 222.949 M215.088 210.493 C 214.477 211.167,214.451 211.698,214.811 216.068 L 215.208 220.898 224.592 230.078 L 233.976 239.258 234.013 246.012 C 234.055 253.833,233.330 253.196,239.453 250.792 L 243.164 249.335 243.271 242.720 L 243.377 236.106 232.919 225.948 C 214.474 208.033,216.066 209.412,215.088 210.493 M203.162 237.714 C 207.018 239.709,206.561 245.424,202.429 246.863 C 197.223 248.677,193.336 242.132,197.405 238.403 C 199.021 236.922,201.140 236.669,203.162 237.714 M199.297 240.313 C 198.438 241.171,198.730 243.277,199.805 243.981 C 201.879 245.340,203.885 242.178,202.020 240.490 C 201.181 239.731,199.958 239.651,199.297 240.313 M197.754 268.629 C 198.130 268.727,198.745 268.727,199.121 268.629 C 199.497 268.530,199.189 268.450,198.438 268.450 C 197.686 268.450,197.378 268.530,197.754 268.629 M257.930 291.797 C 257.930 292.979,258.003 293.462,258.092 292.871 C 258.182 292.280,258.182 291.313,258.092 290.723 C 258.003 290.132,257.930 290.615,257.930 291.797 M297.043 308.008 C 297.044 313.164,297.099 315.219,297.167 312.575 C 297.235 309.931,297.234 305.712,297.167 303.200 C 297.099 300.688,297.043 302.852,297.043 308.008 M138.184 301.461 C 139.526 301.537,141.724 301.537,143.066 301.461 C 144.409 301.385,143.311 301.322,140.625 301.322 C 137.939 301.322,136.841 301.385,138.184 301.461 M136.426 308.472 C 136.802 308.571,137.417 308.571,137.793 308.472 C 138.169 308.374,137.861 308.294,137.109 308.294 C 136.357 308.294,136.050 308.374,136.426 308.472 M145.801 308.472 C 146.177 308.571,146.792 308.571,147.168 308.472 C 147.544 308.374,147.236 308.294,146.484 308.294 C 145.732 308.294,145.425 308.374,145.801 308.472 M134.059 322.167 C 136.786 322.234,141.356 322.234,144.215 322.167 C 147.075 322.100,144.844 322.045,139.258 322.045 C 133.672 322.045,131.332 322.100,134.059 322.167 M234.082 334.644 C 234.458 334.743,235.073 334.743,235.449 334.644 C 235.825 334.546,235.518 334.466,234.766 334.466 C 234.014 334.466,233.706 334.546,234.082 334.644 M182.934 340.820 C 182.936 342.109,183.009 342.590,183.096 341.888 C 183.183 341.185,183.181 340.131,183.092 339.544 C 183.002 338.957,182.931 339.531,182.934 340.820 M143.848 342.475 C 144.868 342.555,146.538 342.555,147.559 342.475 C 148.579 342.394,147.744 342.328,145.703 342.328 C 143.662 342.328,142.827 342.394,143.848 342.475 M309.030 343.214 C 308.975 344.214,308.345 344.785,307.031 345.027 L 306.055 345.206 307.068 345.259 C 308.277 345.323,309.518 344.097,309.259 343.095 C 309.104 342.494,309.068 342.512,309.030 343.214 M178.637 349.023 C 178.639 350.313,178.712 350.793,178.799 350.091 C 178.886 349.389,178.884 348.334,178.795 347.747 C 178.706 347.160,178.634 347.734,178.637 349.023 " stroke="none" fill="#e4e3e4" fill-rule="evenodd"></path>
    <path id="path1" d="M195.508 58.449 C 191.169 58.610,183.926 59.571,179.297 60.599 C 174.263 61.717,167.987 63.522,165.625 64.531 C 165.088 64.761,164.297 65.083,163.867 65.247 C 159.436 66.940,150.308 71.561,147.596 73.484 C 147.026 73.888,146.440 74.219,146.294 74.219 C 146.149 74.219,144.882 75.054,143.479 76.074 C 132.667 83.941,123.612 92.942,116.439 102.952 C 114.407 105.788,113.313 107.511,111.245 111.133 C 109.023 115.023,106.103 121.559,104.699 125.781 C 103.806 128.467,102.925 131.016,102.739 131.445 C 102.554 131.875,102.294 132.754,102.160 133.398 C 102.027 134.043,101.771 135.186,101.592 135.938 C 101.228 137.465,100.210 142.427,99.590 145.703 C 99.366 146.885,99.147 150.928,99.103 154.688 L 99.023 161.523 108.713 161.628 L 118.403 161.732 120.823 159.485 C 123.305 157.179,132.999 147.672,158.382 122.650 C 166.340 114.805,176.016 105.308,179.883 101.545 C 183.750 97.783,189.076 92.600,191.717 90.028 C 196.966 84.918,198.802 83.590,200.586 83.613 C 203.119 83.647,202.111 82.748,226.492 106.712 C 232.361 112.480,237.327 117.099,237.527 116.976 C 237.735 116.847,237.891 112.773,237.891 107.457 C 237.891 94.964,238.044 95.234,231.324 95.948 C 225.664 96.550,221.094 90.878,223.064 85.696 C 223.645 84.170,229.941 77.418,232.010 76.103 C 235.231 74.057,239.937 75.129,242.079 78.398 C 242.420 78.918,243.950 80.286,245.480 81.437 C 251.555 86.009,256.912 92.443,258.435 96.998 C 259.349 99.732,259.015 99.655,254.937 96.200 C 252.911 94.483,249.388 91.719,247.108 90.058 L 242.963 87.037 240.622 89.065 C 237.840 91.475,237.881 91.251,239.876 93.182 C 242.657 95.875,242.578 95.387,242.578 109.927 L 242.578 123.018 247.536 127.818 C 250.262 130.457,257.074 137.122,262.672 142.628 C 268.271 148.134,274.961 154.678,277.539 157.169 L 282.227 161.699 291.797 161.703 C 297.061 161.705,301.605 161.556,301.897 161.371 C 302.336 161.093,302.352 159.952,301.987 154.639 C 301.576 148.635,301.339 146.726,300.344 141.406 C 299.713 138.035,297.898 130.923,297.302 129.492 C 297.124 129.063,296.581 127.483,296.097 125.981 C 293.261 117.187,285.750 103.929,279.903 97.393 C 279.677 97.141,278.789 96.058,277.930 94.987 C 267.267 81.699,248.096 68.379,233.008 63.776 C 231.934 63.448,230.088 62.860,228.906 62.468 C 224.213 60.913,220.601 60.146,212.695 59.023 C 209.621 58.586,200.244 58.273,195.508 58.449 M235.243 79.514 C 233.958 80.414,234.086 82.163,235.510 83.177 C 238.478 85.290,240.878 82.191,238.203 79.698 C 237.183 78.748,236.406 78.700,235.243 79.514 M168.112 80.042 L 169.233 80.484 167.331 82.128 C 166.285 83.033,164.407 84.746,163.157 85.937 L 160.884 88.101 163.817 91.121 C 167.407 94.817,167.098 94.822,171.265 91.016 C 175.530 87.119,175.531 87.119,175.313 91.113 C 174.848 99.669,168.255 104.127,159.511 101.799 C 157.255 101.198,155.247 101.428,153.135 102.529 C 151.742 103.254,150.251 104.669,127.600 126.758 C 113.401 140.605,112.749 141.134,111.156 140.090 C 108.857 138.584,109.439 137.635,117.188 130.240 C 120.088 127.472,128.233 119.586,135.288 112.715 C 142.342 105.843,148.463 99.977,148.889 99.679 C 151.175 98.078,151.953 96.188,151.957 92.227 C 151.966 82.862,159.972 76.824,168.112 80.042 M227.659 87.402 C 226.603 88.632,226.523 89.025,227.099 90.139 C 228.470 92.791,231.693 92.656,231.958 89.936 C 232.190 87.553,229.096 85.730,227.659 87.402 M250.876 97.949 C 252.231 99.490,281.544 127.941,288.184 134.160 C 290.821 136.630,291.300 138.060,289.979 139.520 C 288.670 140.966,287.230 140.453,284.428 137.541 C 282.217 135.244,266.438 119.935,250.862 104.975 C 246.954 101.221,246.484 100.626,246.484 99.431 C 246.484 96.945,249.190 96.033,250.876 97.949 M91.875 341.875 C 91.617 342.133,91.406 342.713,91.406 343.164 C 91.406 344.899,91.605 344.922,106.641 344.922 C 121.676 344.922,121.875 344.899,121.875 343.164 C 121.875 341.429,121.676 341.406,106.641 341.406 C 96.042 341.406,92.223 341.527,91.875 341.875 M279.375 341.875 C 278.739 342.511,278.783 343.943,279.456 344.501 C 280.209 345.126,307.711 345.102,308.466 344.476 C 309.164 343.896,309.121 342.770,308.371 342.020 C 307.567 341.217,280.170 341.080,279.375 341.875 " stroke="none" fill="#d74436" fill-rule="evenodd"></path>
    <path id="path2" d="M193.555 48.853 C 132.026 53.186,84.645 106.927,89.053 167.383 C 93.303 225.668,144.642 270.367,204.883 268.230 C 279.095 265.598,330.054 193.378,306.277 124.533 C 289.892 77.089,242.682 45.394,193.555 48.853 M211.526 58.789 C 263.987 64.849,304.523 112.047,302.274 164.453 L 302.148 167.383 283.008 167.679 C 272.480 167.841,263.287 168.071,262.577 168.189 L 261.286 168.403 261.405 171.799 L 261.523 175.195 281.296 175.391 L 301.068 175.586 300.159 180.078 C 296.205 199.629,284.998 218.479,268.411 233.478 C 264.573 236.948,257.142 242.578,256.399 242.578 C 256.124 242.578,256.099 163.266,256.374 163.040 C 256.413 163.008,260.729 162.882,265.964 162.760 C 271.199 162.638,275.546 162.475,275.625 162.396 C 275.703 162.317,271.860 158.393,267.083 153.674 C 262.307 148.956,245.689 132.532,230.155 117.177 C 214.622 101.821,201.476 89.090,200.943 88.885 C 200.047 88.540,199.524 88.955,194.030 94.367 C 190.761 97.588,183.607 104.611,178.133 109.975 C 172.659 115.338,159.299 128.539,148.445 139.310 C 137.591 150.081,127.744 159.795,126.563 160.897 L 124.414 162.900 134.668 162.798 L 144.923 162.695 144.922 202.637 C 144.922 224.604,144.833 242.578,144.724 242.578 C 142.522 242.578,126.781 228.479,120.519 220.898 C 110.723 209.040,100.000 185.575,100.000 176.000 C 100.000 175.456,102.118 175.391,119.727 175.391 L 139.453 175.391 139.453 171.680 L 139.453 167.969 131.934 167.915 C 127.798 167.886,118.701 167.754,111.719 167.622 L 99.023 167.383 98.828 164.453 C 94.805 104.109,150.642 51.757,211.526 58.789 M215.529 129.028 C 223.638 137.044,233.306 146.564,237.012 150.184 L 243.750 156.766 243.750 190.102 C 243.750 213.769,243.627 223.438,243.327 223.438 C 242.937 223.438,229.593 210.666,225.283 206.168 L 223.418 204.222 225.769 201.709 C 244.584 181.596,232.322 146.553,205.203 142.936 C 173.389 138.694,154.082 177.033,175.449 202.020 C 176.491 203.238,177.344 204.352,177.344 204.494 C 177.344 204.637,172.905 209.177,167.480 214.584 L 157.617 224.414 157.513 190.430 L 157.409 156.445 165.716 148.255 C 170.285 143.750,179.840 134.301,186.949 127.258 C 194.058 120.216,200.079 114.453,200.329 114.453 C 200.580 114.453,207.419 121.012,215.529 129.028 M198.351 154.514 C 199.190 155.102,199.219 155.344,199.219 161.741 C 199.219 168.737,199.184 168.620,201.074 168.113 C 201.940 167.881,201.953 167.784,201.953 161.487 C 201.953 152.526,202.820 152.039,209.375 157.316 C 218.033 164.285,219.160 174.012,212.143 181.215 C 200.230 193.446,178.878 179.591,186.047 164.283 C 188.497 159.051,196.151 152.974,198.351 154.514 M192.748 163.049 C 186.166 169.919,190.863 180.819,200.419 180.851 C 210.866 180.886,215.676 169.893,208.335 162.762 C 206.292 160.777,206.251 160.828,206.244 165.332 C 206.236 170.941,204.789 173.047,200.944 173.047 C 196.473 173.047,195.313 171.546,195.313 165.763 C 195.313 160.655,195.178 160.513,192.748 163.049 M111.146 189.829 C 109.170 192.013,111.283 192.578,121.423 192.578 C 131.126 192.578,133.482 191.842,131.172 189.531 C 130.261 188.621,111.994 188.892,111.146 189.829 M269.783 189.882 C 268.197 192.146,269.841 192.578,280.043 192.578 C 289.350 192.578,290.093 192.394,289.777 190.169 L 289.648 189.258 280.007 189.153 C 270.552 189.051,270.355 189.065,269.783 189.882 M207.789 198.933 C 207.804 203.924,207.900 209.238,208.001 210.742 C 208.103 212.246,208.279 216.992,208.392 221.289 C 208.506 225.586,208.792 232.820,209.028 237.366 C 209.636 249.055,209.472 251.410,207.777 255.273 L 206.406 258.398 200.916 258.506 C 194.611 258.631,195.084 258.869,193.363 254.695 C 192.016 251.430,191.884 248.205,192.561 235.156 C 192.756 231.396,193.108 222.168,193.343 214.648 C 194.143 189.088,194.098 189.734,195.062 190.045 C 196.819 190.611,203.306 190.665,205.273 190.130 C 206.348 189.838,207.347 189.657,207.494 189.728 C 207.640 189.799,207.773 193.942,207.789 198.933 M118.973 199.833 C 118.636 200.170,118.359 200.750,118.359 201.122 C 118.359 202.531,119.148 202.734,124.609 202.734 C 130.185 202.734,130.859 202.545,130.859 200.977 C 130.859 199.415,130.178 199.219,124.754 199.219 C 120.578 199.219,119.469 199.336,118.973 199.833 M270.145 199.833 C 268.095 201.883,269.849 202.734,276.118 202.734 C 282.114 202.734,283.218 202.218,282.018 199.974 C 281.462 198.936,271.164 198.813,270.145 199.833 M186.116 210.213 C 187.055 210.951,187.155 211.241,186.960 212.654 C 186.839 213.536,186.699 215.707,186.649 217.479 L 186.559 220.700 176.873 230.337 L 167.188 239.975 167.188 246.355 C 167.188 249.864,167.056 252.722,166.895 252.708 C 166.733 252.693,164.580 251.858,162.109 250.852 L 157.617 249.023 157.510 242.568 L 157.404 236.112 166.104 227.517 C 179.721 214.067,184.551 209.384,184.811 209.379 C 184.943 209.377,185.530 209.752,186.116 210.213 M226.262 219.151 C 231.691 224.420,237.847 230.378,239.941 232.392 L 243.750 236.052 243.750 242.612 C 243.750 247.139,243.611 249.259,243.300 249.451 C 243.053 249.603,240.900 250.478,238.515 251.394 L 234.180 253.059 234.073 246.287 L 233.967 239.515 224.405 230.221 L 214.844 220.928 214.827 218.960 C 214.817 217.878,214.655 215.674,214.467 214.063 C 214.151 211.361,214.188 211.064,214.950 210.246 C 216.047 209.069,215.132 208.349,226.262 219.151 M185.618 244.818 C 185.550 251.421,185.462 256.853,185.423 256.889 C 185.350 256.956,181.105 256.185,177.441 255.440 L 175.391 255.023 175.391 248.932 L 175.391 242.842 180.566 237.847 C 183.413 235.099,185.742 232.842,185.742 232.832 C 185.742 232.821,185.686 238.215,185.618 244.818 M225.860 248.592 C 225.930 252.152,225.822 254.661,225.586 254.918 C 225.233 255.304,217.687 257.033,216.368 257.030 C 215.913 257.030,215.795 254.993,215.674 245.041 L 215.528 233.052 220.636 237.872 L 225.743 242.691 225.860 248.592 M199.320 237.381 C 193.944 238.439,195.304 246.875,200.850 246.875 C 206.839 246.875,207.305 238.325,201.367 237.393 C 200.723 237.292,199.801 237.286,199.320 237.381 M201.822 240.030 C 203.781 241.402,203.058 244.531,200.781 244.531 C 199.263 244.531,198.263 243.088,198.629 241.424 C 199.030 239.598,200.369 239.013,201.822 240.030 M213.132 287.544 C 202.952 289.934,196.895 302.870,201.535 312.313 C 208.302 326.082,228.496 325.479,234.223 311.337 C 239.784 297.606,227.810 284.098,213.132 287.544 M81.750 287.898 C 79.809 288.679,79.743 288.318,85.527 308.589 C 89.465 322.393,89.172 321.875,93.043 321.875 C 96.480 321.875,96.839 321.506,98.418 316.353 C 100.795 308.597,102.450 303.492,102.551 303.601 C 102.608 303.661,103.811 307.490,105.226 312.109 C 108.198 321.811,108.242 321.875,111.914 321.875 C 115.748 321.875,115.483 322.371,119.962 306.836 C 125.380 288.039,125.021 289.829,123.651 288.459 C 121.421 286.229,117.072 287.365,116.227 290.399 C 115.923 291.490,114.861 295.371,113.868 299.023 C 111.568 307.478,111.677 307.120,111.479 306.922 C 111.386 306.829,110.172 302.729,108.781 297.810 C 105.910 287.659,105.813 287.500,102.518 287.500 C 99.399 287.500,98.702 288.306,97.451 293.359 C 96.553 296.987,94.426 304.722,93.918 306.208 C 93.601 307.134,91.555 300.769,88.700 289.978 C 88.110 287.748,84.677 286.721,81.750 287.898 M132.135 287.807 C 128.629 287.904,128.088 288.012,127.728 288.684 C 126.879 290.271,127.409 320.672,128.297 321.321 C 128.909 321.768,131.149 321.875,139.866 321.875 C 152.682 321.875,152.734 321.860,152.734 318.196 C 152.734 314.752,152.530 314.672,143.319 314.521 L 135.547 314.394 135.547 311.299 L 135.547 308.203 141.775 308.203 C 149.437 308.203,150.239 307.796,150.045 304.004 C 149.934 301.844,149.006 301.563,141.976 301.563 L 135.515 301.563 135.629 298.340 L 135.742 295.117 143.685 294.922 C 152.747 294.699,152.734 294.704,152.734 291.375 C 152.734 287.504,151.387 287.271,132.135 287.807 M171.395 287.788 C 167.800 288.014,167.969 287.169,167.969 304.970 C 167.969 319.792,167.995 320.339,168.750 321.094 C 169.773 322.117,181.180 322.257,184.885 321.292 C 200.457 317.236,202.608 296.192,188.143 289.422 C 184.302 287.625,180.261 287.231,171.395 287.788 M251.367 287.944 C 250.024 288.745,250.012 288.899,250.006 304.920 C 249.999 322.929,249.781 321.885,253.546 321.863 C 257.818 321.838,257.813 321.860,257.813 303.941 C 257.813 289.642,257.788 289.161,257.025 288.471 C 256.067 287.604,252.495 287.271,251.367 287.944 M278.248 287.872 C 276.756 288.510,276.663 289.364,276.473 304.098 C 276.283 318.838,276.423 320.783,277.726 321.480 C 279.127 322.230,282.286 321.958,283.353 320.996 L 284.327 320.117 284.449 304.604 C 284.588 286.852,284.782 287.858,281.172 287.635 C 280.033 287.565,278.718 287.671,278.248 287.872 M287.123 288.646 C 286.901 289.062,286.719 290.353,286.719 291.515 C 286.719 294.692,287.130 294.922,292.804 294.922 L 297.461 294.922 297.461 307.650 L 297.461 320.379 298.383 321.127 C 299.656 322.159,303.077 322.160,304.351 321.129 L 305.273 320.382 305.469 307.750 L 305.664 295.117 310.156 295.015 C 315.535 294.893,316.016 294.580,316.016 291.196 C 316.016 287.725,316.762 287.891,301.158 287.891 C 288.082 287.891,287.511 287.921,287.123 288.646 M183.570 295.945 C 193.692 300.174,190.648 313.660,179.413 314.361 L 176.172 314.563 176.172 305.003 C 176.172 299.745,176.280 295.334,176.413 295.202 C 176.820 294.795,182.140 295.347,183.570 295.945 M222.328 296.153 C 230.740 300.805,227.636 313.589,217.997 313.990 C 207.459 314.430,204.468 299.643,214.294 295.683 C 216.775 294.683,220.013 294.873,222.328 296.153 M138.550 335.466 C 137.979 336.096,137.891 337.207,137.891 343.709 C 137.891 351.870,138.071 352.734,139.779 352.734 C 141.472 352.734,141.797 352.093,141.797 348.750 L 141.797 345.703 145.234 345.703 C 148.995 345.703,149.609 345.418,149.609 343.672 L 149.609 342.578 145.683 342.578 L 141.756 342.578 141.874 340.527 L 141.992 338.477 146.382 338.366 C 150.683 338.258,150.778 338.236,151.014 337.293 C 151.522 335.269,151.234 335.156,145.552 335.156 C 142.662 335.156,140.053 335.062,139.753 334.947 C 139.454 334.832,138.912 335.066,138.550 335.466 M160.742 335.353 C 155.231 337.303,153.381 345.011,157.319 349.612 C 162.077 355.170,171.110 352.960,172.702 345.848 C 174.308 338.671,167.715 332.885,160.742 335.353 M206.901 335.026 C 206.229 335.698,206.878 337.037,209.810 341.029 L 212.980 345.343 212.709 348.226 C 212.384 351.696,212.786 352.734,214.453 352.734 C 216.035 352.734,216.406 351.826,216.406 347.962 L 216.406 344.701 218.990 341.198 C 221.955 337.179,222.483 336.085,221.836 335.304 C 220.462 333.649,218.089 335.432,215.401 340.137 C 214.476 341.755,214.383 341.739,213.085 339.746 C 210.224 335.354,208.153 333.774,206.901 335.026 M231.445 335.348 C 227.928 336.581,225.432 340.939,225.914 345.007 C 227.204 355.898,243.395 354.934,243.476 343.961 C 243.526 337.296,237.728 333.145,231.445 335.348 M249.436 335.634 C 248.699 336.686,248.577 344.967,249.262 347.461 C 251.022 353.867,260.964 354.696,263.821 348.676 C 264.619 346.993,264.753 336.003,263.984 335.234 C 261.976 333.226,260.938 335.212,260.938 341.063 C 260.938 347.605,260.118 349.219,256.798 349.219 C 253.376 349.219,252.344 347.235,252.344 340.658 C 252.344 336.032,252.276 335.538,251.588 335.170 C 250.490 334.582,250.116 334.663,249.436 335.634 M179.143 335.774 C 178.731 336.848,178.879 351.172,179.311 351.979 C 179.769 352.835,181.601 353.008,182.344 352.266 C 182.616 351.993,182.813 350.686,182.813 349.141 L 182.813 346.484 184.524 346.484 C 186.205 346.484,186.267 346.532,187.924 349.075 C 190.029 352.305,190.458 352.734,191.582 352.734 C 193.826 352.734,193.755 351.064,191.381 348.061 C 189.561 345.760,189.582 345.854,190.832 345.540 C 194.313 344.666,194.108 338.116,190.531 335.935 C 188.806 334.884,179.535 334.753,179.143 335.774 M166.395 338.861 C 168.980 340.198,170.004 343.155,168.813 345.846 C 166.447 351.197,158.991 349.666,158.986 343.828 C 158.982 339.647,162.872 337.039,166.395 338.861 M188.672 338.784 C 191.714 340.315,189.724 343.359,185.682 343.359 L 182.813 343.359 182.813 340.820 L 182.813 338.281 185.254 338.287 C 186.597 338.290,188.135 338.514,188.672 338.784 M237.426 339.073 C 240.844 341.157,240.527 347.149,236.918 348.656 C 234.233 349.778,231.944 349.066,230.445 346.642 C 227.475 341.836,232.688 336.184,237.426 339.073 " stroke="none" fill="#333d46" fill-rule="evenodd"></path>
    <path id="path3" d="M228.699 79.004 L 226.367 81.445 228.809 79.114 C 230.151 77.831,231.250 76.733,231.250 76.672 C 231.250 76.384,230.864 76.736,228.699 79.004 M122.056 80.957 L 120.117 83.008 122.168 81.069 C 123.296 80.003,124.219 79.080,124.219 79.019 C 124.219 78.727,123.857 79.051,122.056 80.957 M231.335 84.244 C 229.789 85.881,229.195 86.734,229.691 86.605 C 230.119 86.493,230.469 86.571,230.469 86.778 C 230.469 86.986,230.672 87.030,230.920 86.877 C 231.182 86.715,231.265 86.769,231.119 87.005 C 230.981 87.228,231.163 87.651,231.525 87.944 C 232.082 88.396,232.131 88.394,231.851 87.928 C 231.631 87.563,231.666 87.469,231.954 87.647 C 232.192 87.795,232.278 88.203,232.143 88.553 C 231.980 88.979,232.050 89.097,232.355 88.908 C 232.607 88.753,232.813 88.817,232.813 89.050 C 232.813 89.283,233.847 88.374,235.110 87.029 L 237.408 84.584 236.259 83.885 C 235.627 83.501,234.946 83.287,234.747 83.410 C 234.547 83.533,234.478 83.390,234.593 83.091 C 235.311 81.219,233.630 81.814,231.335 84.244 M118.530 84.473 L 117.383 85.742 118.652 84.595 C 119.836 83.525,120.101 83.203,119.800 83.203 C 119.732 83.203,119.161 83.774,118.530 84.473 M172.436 89.941 L 171.289 91.211 172.559 90.064 C 173.742 88.994,174.008 88.672,173.706 88.672 C 173.639 88.672,173.067 89.243,172.436 89.941 M195.111 93.066 L 190.820 97.461 195.215 93.171 C 199.297 89.186,199.787 88.672,199.505 88.672 C 199.448 88.672,197.470 90.649,195.111 93.066 M206.445 93.750 C 208.801 96.113,210.817 98.047,210.924 98.047 C 211.032 98.047,209.192 96.113,206.836 93.750 C 204.480 91.387,202.464 89.453,202.357 89.453 C 202.250 89.453,204.089 91.387,206.445 93.750 M182.983 98.535 L 181.836 99.805 183.105 98.657 C 184.289 97.588,184.555 97.266,184.253 97.266 C 184.186 97.266,183.614 97.837,182.983 98.535 M216.797 97.388 C 216.797 97.455,217.368 98.026,218.066 98.657 L 219.336 99.805 218.189 98.535 C 217.119 97.352,216.797 97.086,216.797 97.388 M253.125 100.586 C 253.854 101.338,254.538 101.953,254.645 101.953 C 254.753 101.953,254.244 101.338,253.516 100.586 C 252.787 99.834,252.103 99.219,251.995 99.219 C 251.888 99.219,252.396 99.834,253.125 100.586 M253.125 107.153 C 253.125 107.221,253.696 107.792,254.395 108.423 L 255.664 109.570 254.517 108.301 C 253.447 107.117,253.125 106.852,253.125 107.153 M171.094 109.961 C 170.145 110.928,169.456 111.719,169.564 111.719 C 169.671 111.719,170.536 110.928,171.484 109.961 C 172.433 108.994,173.122 108.203,173.014 108.203 C 172.907 108.203,172.043 108.994,171.094 109.961 M175.574 112.207 L 173.242 114.648 175.684 112.317 C 177.951 110.151,178.304 109.766,178.015 109.766 C 177.955 109.766,176.856 110.864,175.574 112.207 M264.063 111.133 C 264.791 111.885,265.476 112.500,265.583 112.500 C 265.690 112.500,265.182 111.885,264.453 111.133 C 263.724 110.381,263.040 109.766,262.933 109.766 C 262.825 109.766,263.334 110.381,264.063 111.133 M142.755 111.816 L 141.211 113.477 142.871 111.932 C 144.415 110.496,144.711 110.156,144.415 110.156 C 144.351 110.156,143.604 110.903,142.755 111.816 M131.433 116.504 L 129.102 118.945 131.543 116.614 C 133.811 114.448,134.163 114.063,133.874 114.063 C 133.814 114.063,132.715 115.161,131.433 116.504 M263.672 117.383 C 265.056 118.779,266.276 119.922,266.384 119.922 C 266.491 119.922,265.447 118.779,264.063 117.383 C 262.678 115.986,261.458 114.844,261.351 114.844 C 261.243 114.844,262.288 115.986,263.672 117.383 M241.406 128.320 C 247.312 134.229,252.231 139.063,252.338 139.063 C 252.446 139.063,247.702 134.229,241.797 128.320 C 235.892 122.412,230.972 117.578,230.865 117.578 C 230.757 117.578,235.501 122.412,241.406 128.320 M131.250 122.852 C 130.301 123.818,129.613 124.609,129.720 124.609 C 129.828 124.609,130.692 123.818,131.641 122.852 C 132.589 121.885,133.278 121.094,133.170 121.094 C 133.063 121.094,132.199 121.885,131.250 122.852 M278.516 125.195 C 279.900 126.592,281.120 127.734,281.227 127.734 C 281.335 127.734,280.290 126.592,278.906 125.195 C 277.522 123.799,276.302 122.656,276.194 122.656 C 276.087 122.656,277.132 123.799,278.516 125.195 M119.518 128.027 L 117.383 130.273 119.629 128.138 C 121.716 126.155,122.054 125.781,121.764 125.781 C 121.703 125.781,120.692 126.792,119.518 128.027 M182.611 131.738 L 178.320 136.133 182.715 131.843 C 185.132 129.483,187.109 127.505,187.109 127.448 C 187.109 127.166,186.595 127.656,182.611 131.738 M157.599 129.785 L 156.055 131.445 157.715 129.901 C 159.259 128.465,159.555 128.125,159.259 128.125 C 159.195 128.125,158.448 128.872,157.599 129.785 M278.499 131.738 C 279.457 132.759,280.292 133.594,280.355 133.594 C 280.648 133.594,280.338 133.243,278.613 131.624 L 276.758 129.883 278.499 131.738 M119.712 134.082 L 117.773 136.133 119.824 134.194 C 120.952 133.128,121.875 132.205,121.875 132.144 C 121.875 131.852,121.513 132.176,119.712 134.082 M287.695 133.984 C 288.534 134.844,289.309 135.547,289.416 135.547 C 289.524 135.547,288.925 134.844,288.086 133.984 C 287.247 133.125,286.472 132.422,286.365 132.422 C 286.257 132.422,286.856 133.125,287.695 133.984 M224.414 138.281 C 226.123 140.000,227.609 141.406,227.716 141.406 C 227.823 141.406,226.513 140.000,224.805 138.281 C 223.096 136.563,221.610 135.156,221.503 135.156 C 221.395 135.156,222.705 136.563,224.414 138.281 M141.200 139.551 L 138.477 142.383 141.309 139.659 C 143.939 137.129,144.319 136.719,144.032 136.719 C 143.973 136.719,142.699 137.993,141.200 139.551 M145.499 141.895 L 142.383 145.117 145.605 142.001 C 148.599 139.107,149.006 138.672,148.721 138.672 C 148.663 138.672,147.212 140.122,145.499 141.895 M264.844 145.117 C 266.876 147.158,268.627 148.828,268.735 148.828 C 268.842 148.828,267.267 147.158,265.234 145.117 C 263.202 143.076,261.451 141.406,261.344 141.406 C 261.236 141.406,262.811 143.076,264.844 145.117 M161.125 152.832 L 157.227 156.836 161.230 152.937 C 163.433 150.793,165.234 148.991,165.234 148.933 C 165.234 148.651,164.747 149.113,161.125 152.832 M176.743 152.051 L 174.805 154.102 176.855 152.163 C 177.983 151.097,178.906 150.174,178.906 150.112 C 178.906 149.821,178.544 150.145,176.743 152.051 M265.625 152.061 C 265.625 152.120,266.987 153.482,268.652 155.088 L 271.680 158.008 268.760 154.980 C 266.048 152.169,265.625 151.775,265.625 152.061 M241.016 154.492 C 242.183 155.674,243.225 156.641,243.333 156.641 C 243.440 156.641,242.573 155.674,241.406 154.492 C 240.239 153.311,239.197 152.344,239.089 152.344 C 238.982 152.344,239.849 153.311,241.016 154.492 M279.297 159.180 C 280.681 160.576,281.901 161.719,282.009 161.719 C 282.116 161.719,281.072 160.576,279.688 159.180 C 278.303 157.783,277.083 156.641,276.976 156.641 C 276.868 156.641,277.913 157.783,279.297 159.180 M121.094 159.180 C 120.145 160.146,119.456 160.938,119.564 160.938 C 119.671 160.938,120.536 160.146,121.484 159.180 C 122.433 158.213,123.122 157.422,123.014 157.422 C 122.907 157.422,122.043 158.213,121.094 159.180 M189.624 159.473 L 188.477 160.742 189.746 159.595 C 190.444 158.964,191.016 158.393,191.016 158.325 C 191.016 158.024,190.693 158.289,189.624 159.473 M206.005 165.039 C 206.006 167.402,206.071 168.319,206.148 167.076 C 206.226 165.832,206.226 163.899,206.147 162.779 C 206.068 161.659,206.005 162.676,206.005 165.039 M302.070 164.063 C 302.070 165.244,302.143 165.728,302.233 165.137 C 302.322 164.546,302.322 163.579,302.233 162.988 C 302.143 162.397,302.070 162.881,302.070 164.063 M144.704 174.023 C 144.704 180.254,144.758 182.748,144.824 179.566 C 144.889 176.384,144.889 171.286,144.823 168.238 C 144.757 165.189,144.703 167.793,144.704 174.023 M299.322 167.468 C 299.916 167.558,300.794 167.555,301.275 167.462 C 301.755 167.370,301.270 167.296,300.195 167.299 C 299.121 167.302,298.728 167.378,299.322 167.468 M139.453 171.680 L 139.453 175.391 119.751 175.391 L 100.049 175.391 100.257 176.855 C 101.860 188.142,109.278 205.432,117.308 216.602 C 121.033 221.782,132.474 233.901,134.194 234.489 C 134.326 234.534,135.229 235.311,136.202 236.217 C 137.175 237.123,138.105 237.826,138.270 237.780 C 138.434 237.733,138.899 238.055,139.304 238.495 C 139.708 238.935,139.891 239.073,139.711 238.803 C 139.530 238.533,139.442 222.484,139.516 203.140 C 139.589 183.796,139.604 167.969,139.551 167.969 C 139.497 167.969,139.453 169.639,139.453 171.680 M243.541 194.727 C 243.541 206.113,243.591 210.715,243.652 204.953 C 243.713 199.191,243.713 189.874,243.652 184.250 C 243.591 178.625,243.541 183.340,243.541 194.727 M261.235 207.377 L 261.133 239.364 262.695 238.158 C 270.537 232.107,285.428 216.126,284.863 214.367 C 284.810 214.199,284.918 214.063,285.104 214.063 C 285.539 214.063,287.630 210.916,287.630 210.262 C 287.630 209.989,287.760 209.766,287.918 209.766 C 288.232 209.766,290.551 205.813,290.718 204.995 C 290.774 204.718,290.942 204.400,291.091 204.288 C 293.325 202.599,300.781 180.692,300.781 175.818 C 300.781 175.514,295.065 175.391,281.059 175.391 L 261.337 175.391 261.235 207.377 M199.707 185.827 C 200.298 185.916,201.265 185.916,201.855 185.827 C 202.446 185.737,201.963 185.664,200.781 185.664 C 199.600 185.664,199.116 185.737,199.707 185.827 M131.259 189.453 C 131.870 190.422,131.689 191.744,130.885 192.174 C 129.498 192.916,112.112 192.702,111.261 191.932 C 110.424 191.174,110.335 190.115,111.059 189.514 C 112.155 188.605,130.689 188.549,131.259 189.453 M289.673 189.480 C 290.341 190.218,290.353 190.378,289.816 191.335 L 289.228 192.383 279.907 192.488 C 269.972 192.599,269.141 192.455,269.141 190.612 C 269.141 188.934,269.999 188.791,280.506 188.725 C 288.574 188.674,288.973 188.707,289.673 189.480 M194.205 190.291 C 194.291 190.582,195.278 191.260,196.398 191.797 L 198.435 192.773 198.436 195.768 C 198.437 197.415,198.251 205.361,198.023 213.424 C 197.548 230.212,197.582 230.447,200.514 230.463 C 203.725 230.480,203.862 229.749,203.446 214.754 C 203.256 207.938,203.151 200.131,203.211 197.405 L 203.320 192.449 205.273 191.796 C 207.120 191.179,207.814 190.300,206.738 189.941 C 206.470 189.852,206.250 189.964,206.250 190.190 C 206.250 190.416,205.986 190.499,205.664 190.376 C 205.342 190.252,205.078 190.310,205.078 190.505 C 205.078 190.699,204.439 190.784,203.658 190.693 C 202.655 190.576,202.319 190.659,202.514 190.976 C 202.717 191.304,202.337 191.345,201.103 191.130 C 200.174 190.968,198.711 190.832,197.852 190.828 C 196.992 190.824,196.201 190.712,196.094 190.580 C 195.627 190.006,194.049 189.764,194.205 190.291 M207.561 199.805 C 207.559 201.738,207.625 202.579,207.707 201.672 C 207.789 200.765,207.790 199.183,207.709 198.156 C 207.629 197.129,207.562 197.871,207.561 199.805 M130.846 199.974 C 132.063 202.250,130.969 202.734,124.609 202.734 C 118.176 202.734,117.064 202.246,118.577 200.087 C 119.458 198.829,130.180 198.731,130.846 199.974 M281.953 199.688 C 284.195 201.930,281.637 203.257,275.698 202.933 C 269.140 202.575,268.368 202.214,269.727 200.140 C 270.428 199.070,280.946 198.680,281.953 199.688 M193.862 201.758 C 193.865 202.832,193.941 203.225,194.030 202.631 C 194.120 202.038,194.118 201.159,194.025 200.678 C 193.932 200.198,193.859 200.684,193.862 201.758 M225.000 202.539 C 224.051 203.506,223.363 204.297,223.470 204.297 C 223.578 204.297,224.442 203.506,225.391 202.539 C 226.339 201.572,227.028 200.781,226.920 200.781 C 226.813 200.781,225.949 201.572,225.000 202.539 M144.677 211.914 C 144.678 214.277,144.743 215.194,144.820 213.951 C 144.898 212.707,144.897 210.774,144.819 209.654 C 144.740 208.534,144.676 209.551,144.677 211.914 M181.241 212.793 L 177.930 216.211 181.434 212.891 C 183.361 211.064,185.016 209.526,185.112 209.473 C 185.208 209.419,185.121 209.375,184.920 209.375 C 184.718 209.375,183.063 210.913,181.241 212.793 M219.531 213.086 C 220.260 213.838,220.944 214.453,221.052 214.453 C 221.159 214.453,220.651 213.838,219.922 213.086 C 219.193 212.334,218.509 211.719,218.401 211.719 C 218.294 211.719,218.802 212.334,219.531 213.086 M193.458 214.258 C 193.462 215.117,193.542 215.423,193.636 214.937 C 193.729 214.451,193.726 213.748,193.628 213.374 C 193.530 213.001,193.454 213.398,193.458 214.258 M207.919 216.406 C 207.919 217.373,207.995 217.769,208.088 217.285 C 208.181 216.802,208.181 216.011,208.088 215.527 C 207.995 215.044,207.919 215.439,207.919 216.406 M237.695 218.359 C 239.188 219.863,240.497 221.094,240.604 221.094 C 240.711 221.094,239.578 219.863,238.086 218.359 C 236.594 216.855,235.285 215.625,235.177 215.625 C 235.070 215.625,236.203 216.855,237.695 218.359 M144.700 227.734 C 144.700 232.998,144.755 235.151,144.823 232.520 C 144.891 229.888,144.891 225.581,144.823 222.949 C 144.755 220.317,144.700 222.471,144.700 227.734 M231.641 224.805 C 233.457 226.631,235.032 228.125,235.139 228.125 C 235.246 228.125,233.848 226.631,232.031 224.805 C 230.215 222.979,228.640 221.484,228.533 221.484 C 228.425 221.484,229.824 222.979,231.641 224.805 M193.059 225.000 C 193.059 225.752,193.140 226.060,193.238 225.684 C 193.336 225.308,193.336 224.692,193.238 224.316 C 193.140 223.940,193.059 224.248,193.059 225.000 M208.294 227.344 C 208.294 228.096,208.374 228.403,208.472 228.027 C 208.571 227.651,208.571 227.036,208.472 226.660 C 208.374 226.284,208.294 226.592,208.294 227.344 M174.213 232.715 L 169.336 237.695 174.316 232.818 C 177.056 230.136,179.297 227.895,179.297 227.838 C 179.297 227.557,178.743 228.089,174.213 232.715 M160.728 232.910 L 158.789 234.961 160.840 233.022 C 161.968 231.956,162.891 231.034,162.891 230.972 C 162.891 230.680,162.529 231.005,160.728 232.910 M228.906 234.570 C 230.290 235.967,231.511 237.109,231.618 237.109 C 231.725 237.109,230.681 235.967,229.297 234.570 C 227.913 233.174,226.692 232.031,226.585 232.031 C 226.478 232.031,227.522 233.174,228.906 234.570 M118.359 233.789 C 119.088 234.541,119.772 235.156,119.880 235.156 C 119.987 235.156,119.479 234.541,118.750 233.789 C 118.021 233.037,117.337 232.422,117.230 232.422 C 117.122 232.422,117.631 233.037,118.359 233.789 M180.598 237.929 L 175.845 242.646 175.845 248.862 C 175.845 255.718,175.610 255.063,178.125 255.234 C 178.447 255.256,178.915 255.406,179.164 255.568 C 179.413 255.730,179.914 255.748,180.278 255.608 C 180.641 255.469,181.063 255.557,181.216 255.805 C 181.369 256.052,182.406 256.331,183.521 256.425 L 185.547 256.595 185.547 244.899 C 185.547 238.466,185.503 233.205,185.449 233.207 C 185.396 233.210,183.212 235.334,180.598 237.929 M216.037 245.274 C 215.987 255.825,216.045 257.031,216.607 257.031 C 216.952 257.031,217.141 256.881,217.027 256.697 C 216.913 256.513,217.255 256.446,217.785 256.547 C 218.316 256.649,218.750 256.560,218.750 256.350 C 218.750 256.140,219.189 256.052,219.727 256.154 C 220.338 256.271,220.703 256.162,220.703 255.863 C 220.703 255.547,221.036 255.468,221.680 255.629 C 222.289 255.782,222.656 255.709,222.656 255.434 C 222.656 255.159,223.024 255.086,223.633 255.239 C 224.241 255.391,224.609 255.318,224.609 255.044 C 224.609 254.802,224.848 254.695,225.139 254.807 C 225.746 255.040,226.050 245.148,225.491 243.359 C 225.324 242.822,223.140 240.388,220.639 237.950 L 216.093 233.518 216.037 245.274 M279.276 236.621 L 277.930 238.086 279.395 236.740 C 280.758 235.487,281.039 235.156,280.741 235.156 C 280.675 235.156,280.016 235.815,279.276 236.621 M243.518 242.578 C 243.518 246.123,243.578 247.573,243.650 245.801 C 243.722 244.028,243.722 241.128,243.650 239.355 C 243.578 237.583,243.518 239.033,243.518 242.578 M192.278 243.750 C 192.278 244.502,192.359 244.810,192.457 244.434 C 192.555 244.058,192.555 243.442,192.457 243.066 C 192.359 242.690,192.278 242.998,192.278 243.750 M209.075 245.313 C 209.075 246.064,209.155 246.372,209.254 245.996 C 209.352 245.620,209.352 245.005,209.254 244.629 C 209.155 244.253,209.075 244.561,209.075 245.313 M198.156 258.491 C 199.183 258.571,200.765 258.570,201.672 258.489 C 202.579 258.407,201.738 258.341,199.805 258.342 C 197.871 258.343,197.129 258.410,198.156 258.491 M200.488 268.639 C 201.079 268.729,202.046 268.729,202.637 268.639 C 203.228 268.550,202.744 268.476,201.563 268.476 C 200.381 268.476,199.897 268.550,200.488 268.639 M280.176 287.379 C 280.552 287.477,281.167 287.477,281.543 287.379 C 281.919 287.280,281.611 287.200,280.859 287.200 C 280.107 287.200,279.800 287.280,280.176 287.379 M152.825 291.016 C 152.825 291.768,152.905 292.075,153.004 291.699 C 153.102 291.323,153.102 290.708,153.004 290.332 C 152.905 289.956,152.825 290.264,152.825 291.016 M276.289 291.797 C 276.289 292.979,276.362 293.462,276.452 292.871 C 276.541 292.280,276.541 291.313,276.452 290.723 C 276.362 290.132,276.289 290.615,276.289 291.797 M230.273 291.797 C 231.113 292.656,231.887 293.359,231.994 293.359 C 232.102 293.359,231.503 292.656,230.664 291.797 C 229.825 290.938,229.050 290.234,228.943 290.234 C 228.836 290.234,229.434 290.938,230.273 291.797 M305.642 307.031 C 305.642 313.584,305.696 316.265,305.761 312.988 C 305.826 309.712,305.826 304.351,305.761 301.074 C 305.696 297.798,305.642 300.479,305.642 307.031 M135.672 298.047 C 135.672 299.443,135.743 300.015,135.829 299.316 C 135.916 298.618,135.916 297.476,135.829 296.777 C 135.743 296.079,135.672 296.650,135.672 298.047 M145.801 301.441 C 146.177 301.539,146.792 301.539,147.168 301.441 C 147.544 301.343,147.236 301.263,146.484 301.263 C 145.732 301.263,145.425 301.343,145.801 301.441 M235.668 304.492 C 235.670 305.781,235.743 306.262,235.830 305.559 C 235.917 304.857,235.915 303.803,235.826 303.216 C 235.737 302.629,235.666 303.203,235.668 304.492 M139.941 308.490 C 140.962 308.571,142.632 308.571,143.652 308.490 C 144.673 308.410,143.838 308.344,141.797 308.344 C 139.756 308.344,138.921 308.410,139.941 308.490 M135.681 311.523 C 135.682 313.242,135.751 313.897,135.833 312.978 C 135.916 312.059,135.915 310.653,135.831 309.853 C 135.747 309.053,135.679 309.805,135.681 311.523 M177.253 314.346 C 177.955 314.433,179.010 314.431,179.597 314.342 C 180.184 314.252,179.609 314.181,178.320 314.184 C 177.031 314.186,176.551 314.259,177.253 314.346 M172.754 322.165 C 174.419 322.239,177.144 322.239,178.809 322.165 C 180.474 322.092,179.111 322.032,175.781 322.032 C 172.451 322.032,171.089 322.092,172.754 322.165 M300.293 322.151 C 300.776 322.244,301.567 322.244,302.051 322.151 C 302.534 322.058,302.139 321.981,301.172 321.981 C 300.205 321.981,299.810 322.058,300.293 322.151 M163.379 334.644 C 163.755 334.743,164.370 334.743,164.746 334.644 C 165.122 334.546,164.814 334.466,164.063 334.466 C 163.311 334.466,163.003 334.546,163.379 334.644 M252.493 340.430 C 252.494 343.008,252.557 344.012,252.633 342.660 C 252.710 341.309,252.709 339.200,252.632 337.973 C 252.555 336.746,252.492 337.852,252.493 340.430 M234.082 338.551 C 234.458 338.649,235.073 338.649,235.449 338.551 C 235.825 338.452,235.518 338.372,234.766 338.372 C 234.014 338.372,233.706 338.452,234.082 338.551 M193.450 341.016 C 193.450 341.768,193.530 342.075,193.629 341.699 C 193.727 341.323,193.727 340.708,193.629 340.332 C 193.530 339.956,193.450 340.264,193.450 341.016 M99.928 341.308 C 103.863 341.372,110.191 341.372,113.990 341.308 C 117.790 341.244,114.570 341.192,106.836 341.192 C 99.102 341.192,95.993 341.244,99.928 341.308 M287.012 341.308 C 290.718 341.372,296.782 341.372,300.488 341.308 C 304.194 341.244,301.162 341.191,293.750 341.191 C 286.338 341.191,283.306 341.244,287.012 341.308 M183.878 343.251 C 184.571 343.337,185.802 343.338,186.612 343.254 C 187.423 343.169,186.855 343.099,185.352 343.097 C 183.848 343.095,183.185 343.164,183.878 343.251 M99.928 345.214 C 103.863 345.278,110.191 345.278,113.990 345.214 C 117.790 345.150,114.570 345.098,106.836 345.098 C 99.102 345.098,95.993 345.151,99.928 345.214 M287.988 345.214 C 291.372 345.279,296.909 345.279,300.293 345.214 C 303.677 345.149,300.908 345.096,294.141 345.096 C 287.373 345.096,284.604 345.149,287.988 345.214 M141.959 346.235 C 141.847 346.528,141.819 347.802,141.897 349.067 L 142.040 351.367 142.114 348.748 L 142.188 346.128 145.020 345.993 L 147.852 345.858 145.007 345.781 C 142.912 345.724,142.109 345.843,141.959 346.235 " stroke="none" fill="#a0a7ab" fill-rule="evenodd"></path>
    <path id="path4" d="M195.215 48.713 C 195.698 48.806,196.489 48.806,196.973 48.713 C 197.456 48.620,197.061 48.544,196.094 48.544 C 195.127 48.544,194.731 48.620,195.215 48.713 M195.996 58.479 C 196.479 58.572,197.271 58.572,197.754 58.479 C 198.237 58.386,197.842 58.310,196.875 58.310 C 195.908 58.310,195.513 58.386,195.996 58.479 M204.597 58.486 C 205.299 58.573,206.354 58.571,206.941 58.482 C 207.528 58.393,206.953 58.322,205.664 58.324 C 204.375 58.326,203.895 58.399,204.597 58.486 M277.539 80.078 C 278.378 80.938,279.153 81.641,279.260 81.641 C 279.368 81.641,278.769 80.938,277.930 80.078 C 277.091 79.219,276.316 78.516,276.209 78.516 C 276.101 78.516,276.700 79.219,277.539 80.078 M128.504 88.574 L 125.977 91.211 128.613 88.683 C 131.062 86.335,131.429 85.938,131.141 85.938 C 131.081 85.938,129.895 87.124,128.504 88.574 M189.239 98.926 L 187.695 100.586 189.355 99.042 C 190.269 98.193,191.016 97.445,191.016 97.382 C 191.016 97.086,190.675 97.382,189.239 98.926 M218.945 106.250 C 223.453 110.762,227.229 114.453,227.337 114.453 C 227.444 114.453,223.844 110.762,219.336 106.250 C 214.828 101.738,211.052 98.047,210.944 98.047 C 210.837 98.047,214.437 101.738,218.945 106.250 M197.058 117.285 L 194.727 119.727 197.168 117.395 C 199.436 115.229,199.788 114.844,199.499 114.844 C 199.439 114.844,198.340 115.942,197.058 117.285 M170.105 117.676 L 167.773 120.117 170.215 117.786 C 172.483 115.620,172.835 115.234,172.546 115.234 C 172.486 115.234,171.387 116.333,170.105 117.676 M206.250 120.117 C 207.634 121.514,208.854 122.656,208.962 122.656 C 209.069 122.656,208.025 121.514,206.641 120.117 C 205.257 118.721,204.036 117.578,203.929 117.578 C 203.821 117.578,204.866 118.721,206.250 120.117 M189.830 124.512 L 187.695 126.758 189.941 124.623 C 192.028 122.639,192.366 122.266,192.076 122.266 C 192.015 122.266,191.005 123.276,189.830 124.512 M214.844 128.711 C 216.011 129.893,217.053 130.859,217.161 130.859 C 217.268 130.859,216.401 129.893,215.234 128.711 C 214.067 127.529,213.025 126.563,212.917 126.563 C 212.810 126.563,213.677 127.529,214.844 128.711 M255.469 142.383 C 257.285 144.209,258.860 145.703,258.967 145.703 C 259.075 145.703,257.676 144.209,255.859 142.383 C 254.043 140.557,252.468 139.063,252.361 139.063 C 252.254 139.063,253.652 140.557,255.469 142.383 M168.742 145.215 L 165.039 149.023 168.848 145.320 C 172.385 141.881,172.834 141.406,172.551 141.406 C 172.493 141.406,170.779 143.120,168.742 145.215 M233.203 146.592 C 233.203 146.651,234.565 148.013,236.230 149.619 L 239.258 152.539 236.338 149.512 C 233.626 146.700,233.203 146.306,233.203 146.592 M133.002 154.395 L 127.930 159.570 133.105 154.498 C 137.913 149.786,138.458 149.219,138.178 149.219 C 138.121 149.219,135.792 151.548,133.002 154.395 M88.784 154.102 C 88.787 155.176,88.862 155.569,88.952 154.975 C 89.042 154.381,89.040 153.502,88.947 153.022 C 88.854 152.542,88.781 153.027,88.784 154.102 M243.527 165.430 C 243.527 170.371,243.583 172.339,243.651 169.802 C 243.719 167.266,243.719 163.223,243.651 160.818 C 243.582 158.413,243.527 160.488,243.527 165.430 M273.438 159.961 C 274.604 161.143,275.647 162.109,275.755 162.109 C 275.862 162.109,274.995 161.143,273.828 159.961 C 272.661 158.779,271.618 157.813,271.511 157.813 C 271.404 157.813,272.271 158.779,273.438 159.961 M270.215 162.786 C 271.128 162.868,272.622 162.868,273.535 162.786 C 274.448 162.704,273.701 162.636,271.875 162.636 C 270.049 162.636,269.302 162.704,270.215 162.786 M88.770 165.820 C 88.775 166.680,88.855 166.985,88.948 166.499 C 89.042 166.013,89.038 165.310,88.940 164.937 C 88.842 164.563,88.766 164.961,88.770 165.820 M104.395 167.480 C 107.349 167.546,112.183 167.546,115.137 167.480 C 118.091 167.413,115.674 167.359,109.766 167.359 C 103.857 167.359,101.440 167.413,104.395 167.480 M287.032 167.479 C 289.246 167.549,292.762 167.549,294.845 167.478 C 296.928 167.408,295.117 167.351,290.820 167.352 C 286.523 167.352,284.819 167.409,287.032 167.479 M216.513 170.313 C 216.513 171.279,216.589 171.675,216.682 171.191 C 216.775 170.708,216.775 169.917,216.682 169.434 C 216.589 168.950,216.513 169.346,216.513 170.313 M199.712 181.140 C 200.306 181.229,201.185 181.227,201.666 181.134 C 202.146 181.042,201.660 180.968,200.586 180.971 C 199.512 180.974,199.119 181.050,199.712 181.140 M122.770 188.962 C 124.229 189.037,126.514 189.037,127.848 188.961 C 129.182 188.885,127.988 188.823,125.195 188.824 C 122.402 188.824,121.311 188.887,122.770 188.962 M276.074 188.963 C 278.491 189.032,282.446 189.032,284.863 188.963 C 287.280 188.895,285.303 188.839,280.469 188.839 C 275.635 188.839,273.657 188.895,276.074 188.963 M199.902 190.901 C 200.386 190.994,201.177 190.994,201.660 190.901 C 202.144 190.808,201.748 190.731,200.781 190.731 C 199.814 190.731,199.419 190.808,199.902 190.901 M207.553 193.750 C 207.553 195.361,207.622 196.021,207.706 195.215 C 207.791 194.409,207.791 193.091,207.706 192.285 C 207.622 191.479,207.553 192.139,207.553 193.750 M193.875 197.656 C 193.875 199.053,193.946 199.624,194.033 198.926 C 194.119 198.228,194.119 197.085,194.033 196.387 C 193.946 195.688,193.875 196.260,193.875 197.656 M277.246 203.017 C 277.944 203.104,279.087 203.104,279.785 203.017 C 280.483 202.930,279.912 202.859,278.516 202.859 C 277.119 202.859,276.548 202.930,277.246 203.017 M226.172 207.227 C 227.339 208.408,228.382 209.375,228.489 209.375 C 228.596 209.375,227.729 208.408,226.563 207.227 C 225.396 206.045,224.353 205.078,224.245 205.078 C 224.138 205.078,225.005 206.045,226.172 207.227 M193.458 211.523 C 193.462 212.383,193.542 212.688,193.636 212.202 C 193.729 211.717,193.726 211.013,193.628 210.640 C 193.530 210.267,193.454 210.664,193.458 211.523 M207.938 212.500 C 207.938 213.896,208.008 214.468,208.095 213.770 C 208.182 213.071,208.182 211.929,208.095 211.230 C 208.008 210.532,207.938 211.104,207.938 212.500 M165.033 216.895 L 159.961 222.070 165.137 216.998 C 167.983 214.208,170.313 211.879,170.313 211.822 C 170.313 211.542,169.745 212.087,165.033 216.895 M243.505 219.336 C 243.506 221.699,243.571 222.616,243.648 221.372 C 243.726 220.129,243.726 218.196,243.647 217.076 C 243.568 215.955,243.505 216.973,243.505 219.336 M186.435 217.969 C 186.435 218.936,186.511 219.331,186.604 218.848 C 186.697 218.364,186.697 217.573,186.604 217.090 C 186.511 216.606,186.435 217.002,186.435 217.969 M225.977 219.141 C 227.252 220.430,228.384 221.484,228.491 221.484 C 228.599 221.484,227.643 220.430,226.367 219.141 C 225.092 217.852,223.960 216.797,223.853 216.797 C 223.745 216.797,224.701 217.852,225.977 219.141 M168.941 224.707 L 162.695 231.055 169.043 224.809 C 172.534 221.374,175.391 218.518,175.391 218.462 C 175.391 218.183,174.743 218.810,168.941 224.707 M217.188 223.242 C 218.572 224.639,219.792 225.781,219.899 225.781 C 220.007 225.781,218.962 224.639,217.578 223.242 C 216.194 221.846,214.974 220.703,214.866 220.703 C 214.759 220.703,215.803 221.846,217.188 223.242 M193.067 222.461 C 193.072 223.320,193.152 223.626,193.245 223.140 C 193.338 222.654,193.335 221.951,193.237 221.577 C 193.139 221.204,193.063 221.602,193.067 222.461 M208.294 225.000 C 208.294 225.752,208.374 226.060,208.472 225.684 C 208.571 225.308,208.571 224.692,208.472 224.316 C 208.374 223.940,208.294 224.248,208.294 225.000 M275.781 225.977 C 274.832 226.943,274.144 227.734,274.251 227.734 C 274.359 227.734,275.223 226.943,276.172 225.977 C 277.121 225.010,277.809 224.219,277.702 224.219 C 277.594 224.219,276.730 225.010,275.781 225.977 M255.971 226.367 C 255.974 227.441,256.050 227.834,256.140 227.241 C 256.229 226.647,256.227 225.768,256.134 225.288 C 256.042 224.807,255.968 225.293,255.971 226.367 M270.493 231.348 L 268.555 233.398 270.605 231.460 C 272.511 229.659,272.835 229.297,272.544 229.297 C 272.482 229.297,271.559 230.220,270.493 231.348 M240.234 233.008 C 242.051 234.834,243.625 236.328,243.733 236.328 C 243.840 236.328,242.442 234.834,240.625 233.008 C 238.808 231.182,237.234 229.688,237.127 229.688 C 237.019 229.688,238.418 231.182,240.234 233.008 M130.664 231.641 C 131.503 232.500,132.278 233.203,132.385 233.203 C 132.493 233.203,131.894 232.500,131.055 231.641 C 130.216 230.781,129.441 230.078,129.334 230.078 C 129.226 230.078,129.825 230.781,130.664 231.641 M192.685 232.422 C 192.685 233.389,192.761 233.784,192.854 233.301 C 192.947 232.817,192.947 232.026,192.854 231.543 C 192.761 231.060,192.685 231.455,192.685 232.422 M208.684 233.984 C 208.684 234.736,208.765 235.044,208.863 234.668 C 208.961 234.292,208.961 233.677,208.863 233.301 C 208.765 232.925,208.684 233.232,208.684 233.984 M215.791 241.406 C 215.791 246.025,215.847 247.915,215.916 245.605 C 215.986 243.296,215.986 239.517,215.916 237.207 C 215.847 234.897,215.791 236.787,215.791 241.406 M256.005 238.477 C 256.006 240.840,256.071 241.756,256.148 240.513 C 256.226 239.270,256.226 237.336,256.147 236.216 C 256.068 235.096,256.005 236.113,256.005 238.477 M144.643 238.867 C 144.646 239.941,144.722 240.334,144.812 239.741 C 144.901 239.147,144.899 238.268,144.806 237.788 C 144.714 237.307,144.640 237.793,144.643 238.867 M223.047 240.430 C 223.776 241.182,224.460 241.797,224.567 241.797 C 224.675 241.797,224.166 241.182,223.438 240.430 C 222.709 239.678,222.024 239.063,221.917 239.063 C 221.810 239.063,222.318 239.678,223.047 240.430 M192.294 241.016 C 192.294 241.982,192.370 242.378,192.463 241.895 C 192.556 241.411,192.556 240.620,192.463 240.137 C 192.370 239.653,192.294 240.049,192.294 241.016 M209.096 242.383 C 209.099 243.457,209.175 243.850,209.265 243.256 C 209.354 242.663,209.352 241.784,209.259 241.303 C 209.167 240.823,209.093 241.309,209.096 242.383 M175.550 248.828 C 175.550 252.373,175.609 253.823,175.681 252.051 C 175.754 250.278,175.754 247.378,175.681 245.605 C 175.609 243.833,175.550 245.283,175.550 248.828 M204.688 258.203 L 202.930 258.476 204.567 258.535 C 205.467 258.567,206.313 258.418,206.445 258.203 C 206.578 257.988,206.632 257.839,206.566 257.871 C 206.500 257.903,205.654 258.053,204.688 258.203 M192.676 268.238 C 193.052 268.336,193.667 268.336,194.043 268.238 C 194.419 268.140,194.111 268.059,193.359 268.059 C 192.607 268.059,192.300 268.140,192.676 268.238 M217.090 286.994 C 217.573 287.088,218.364 287.088,218.848 286.994 C 219.331 286.901,218.936 286.825,217.969 286.825 C 217.002 286.825,216.606 286.901,217.090 286.994 M130.384 287.788 C 131.519 287.868,133.277 287.867,134.290 287.787 C 135.304 287.706,134.375 287.642,132.227 287.643 C 130.078 287.644,129.249 287.709,130.384 287.788 M170.410 287.780 C 171.001 287.869,171.968 287.869,172.559 287.780 C 173.149 287.690,172.666 287.617,171.484 287.617 C 170.303 287.617,169.819 287.690,170.410 287.780 M294.604 287.792 C 298.189 287.857,304.165 287.857,307.885 287.792 C 311.605 287.728,308.672 287.675,301.367 287.675 C 294.063 287.675,291.019 287.728,294.604 287.792 M316.114 290.820 C 316.118 291.680,316.198 291.985,316.292 291.499 C 316.385 291.013,316.382 290.310,316.284 289.937 C 316.186 289.563,316.110 289.961,316.114 290.820 M249.787 304.883 C 249.787 313.262,249.839 316.634,249.902 312.376 C 249.965 308.119,249.965 301.264,249.902 297.142 C 249.839 293.021,249.787 296.504,249.787 304.883 M286.427 291.211 C 286.431 292.070,286.511 292.376,286.604 291.890 C 286.698 291.404,286.694 290.701,286.597 290.327 C 286.499 289.954,286.422 290.352,286.427 291.211 M205.057 292.090 L 203.711 293.555 205.176 292.209 C 206.539 290.956,206.820 290.625,206.522 290.625 C 206.457 290.625,205.797 291.284,205.057 292.090 M276.341 303.125 C 276.341 308.389,276.396 310.542,276.464 307.910 C 276.531 305.278,276.531 300.972,276.464 298.340 C 276.396 295.708,276.341 297.861,276.341 303.125 M135.802 295.215 C 135.701 295.376,137.844 295.462,140.564 295.406 C 149.687 295.218,150.640 295.075,143.285 294.998 C 139.269 294.956,135.902 295.054,135.802 295.215 M292.848 295.213 L 297.220 295.338 297.372 296.790 L 297.525 298.242 297.591 296.582 L 297.656 294.922 293.066 295.005 L 288.477 295.089 292.848 295.213 M307.924 295.211 C 309.168 295.289,311.101 295.288,312.221 295.209 C 313.341 295.131,312.324 295.067,309.961 295.068 C 307.598 295.069,306.681 295.133,307.924 295.211 M284.549 307.227 C 284.549 313.887,284.602 316.666,284.667 313.403 C 284.732 310.140,284.732 304.691,284.667 301.294 C 284.602 297.897,284.549 300.566,284.549 307.227 M199.730 304.492 C 199.733 305.781,199.806 306.262,199.892 305.559 C 199.979 304.857,199.978 303.803,199.888 303.216 C 199.799 302.629,199.728 303.203,199.730 304.492 M227.052 304.492 C 227.056 305.352,227.136 305.657,227.229 305.171 C 227.323 304.685,227.319 303.982,227.222 303.609 C 227.124 303.235,227.047 303.633,227.052 304.492 M208.294 304.688 C 208.294 305.439,208.374 305.747,208.472 305.371 C 208.571 304.995,208.571 304.380,208.472 304.004 C 208.374 303.628,208.294 303.936,208.294 304.688 M152.833 318.164 C 152.837 319.023,152.917 319.329,153.011 318.843 C 153.104 318.357,153.101 317.654,153.003 317.281 C 152.905 316.907,152.829 317.305,152.833 318.164 M92.485 322.151 C 92.971 322.245,93.674 322.241,94.048 322.143 C 94.421 322.046,94.023 321.969,93.164 321.974 C 92.305 321.978,91.999 322.058,92.485 322.151 M110.645 322.144 C 111.021 322.243,111.636 322.243,112.012 322.144 C 112.388 322.046,112.080 321.966,111.328 321.966 C 110.576 321.966,110.269 322.046,110.645 322.144 M279.594 322.151 C 280.080 322.245,280.783 322.241,281.157 322.143 C 281.530 322.046,281.133 321.969,280.273 321.974 C 279.414 321.978,279.108 322.058,279.594 322.151 M216.509 322.546 C 217.103 322.636,217.982 322.633,218.462 322.541 C 218.943 322.448,218.457 322.374,217.383 322.377 C 216.309 322.380,215.916 322.456,216.509 322.546 M142.268 335.055 C 143.709 335.130,146.170 335.130,147.737 335.056 C 149.304 334.982,148.125 334.920,145.117 334.920 C 142.109 334.919,140.827 334.980,142.268 335.055 M181.738 335.054 C 182.974 335.132,184.995 335.132,186.230 335.054 C 187.466 334.977,186.455 334.913,183.984 334.913 C 181.514 334.913,180.503 334.977,181.738 335.054 M264.608 341.406 C 264.608 344.521,264.669 345.796,264.743 344.238 C 264.817 342.681,264.817 340.132,264.743 338.574 C 264.669 337.017,264.608 338.291,264.608 341.406 M141.955 338.822 C 141.841 339.120,141.816 340.131,141.899 341.069 C 142.050 342.765,142.051 342.764,142.119 340.736 L 142.188 338.699 146.191 338.573 L 150.195 338.446 146.179 338.364 C 143.060 338.300,142.117 338.402,141.955 338.822 M183.878 338.563 C 184.571 338.649,185.802 338.651,186.612 338.566 C 187.423 338.482,186.855 338.411,185.352 338.409 C 183.848 338.408,183.185 338.477,183.878 338.563 M212.612 346.680 C 212.615 347.754,212.691 348.147,212.780 347.553 C 212.870 346.959,212.868 346.081,212.775 345.600 C 212.682 345.120,212.609 345.605,212.612 346.680 M163.188 353.011 C 163.674 353.104,164.377 353.101,164.751 353.003 C 165.124 352.905,164.727 352.829,163.867 352.833 C 163.008 352.837,162.702 352.917,163.188 353.011 M233.891 353.011 C 234.377 353.104,235.080 353.101,235.454 353.003 C 235.827 352.905,235.430 352.829,234.570 352.833 C 233.711 352.837,233.405 352.917,233.891 353.011 " stroke="none" fill="#847a7d" fill-rule="evenodd"></path>
  </g>
</svg>